<?xml version="1.0" encoding="UTF-8"?>
<svg width="752pt" height="752pt" version="1.1" viewBox="0 0 752 752" xmlns="http://www.w3.org/2000/svg">
 <g>
  <path d="m376 197.46c-66.773 0-120.76 53.988-120.76 121.24 0 17.523 3.7891 33.625 9.9453 48.777l104.19 202.22c2.8398 5.6836 10.418 5.6836 13.262 0l104.19-202.22c6.6289-14.68 9.9453-31.258 9.9453-48.777 0-67.25-53.988-121.24-120.77-121.24zm0 218.32c-53.988 0-98.031-44.043-98.031-98.031s44.043-98.031 98.031-98.031 98.031 44.043 98.031 98.031-44.043 98.031-98.031 98.031z"/>
  <path d="m358.48 263.29h-10.418c-1.4219 0-2.3672 0.94531-2.3672 2.3672s0.94531 2.3672 2.3672 2.3672h10.418z"/>
  <path d="m393.52 268.02h10.418c1.4219 0 2.3672-0.94531 2.3672-2.3672s-0.94531-2.3672-2.3672-2.3672h-10.418z"/>
  <path d="m378.37 248.13v-10.418c0-1.4219-0.94531-2.3672-2.3672-2.3672s-2.3672 0.94531-2.3672 2.3672l-0.003907 10.418z"/>
  <path d="m365.58 251.92-7.1055-7.1055c-0.94531-0.94531-2.3672-0.94531-3.3164 0-0.94531 0.94531-0.94531 2.3672 0 3.3164l7.1055 7.1055z"/>
  <path d="m389.73 255.24 7.1055-7.1055c0.94531-0.94531 0.94531-2.3672 0-3.3164-0.94531-0.94531-2.3672-0.94531-3.3164 0l-7.1055 7.1055z"/>
  <path d="m438.04 313.49h-4.7344c-1.4219 0-3.3164-1.4219-3.3164-2.8398l-6.6289-28.891c-0.94531-3.7891-4.2617-6.6289-8.0508-6.6289h-26.52v-13.734c0-4.2617-3.7891-8.0508-8.0508-8.0508h-9.4727c-4.2617 0-8.0508 3.7891-8.0508 8.0508v13.734h-26.52c-3.7891 0-7.1055 2.8398-8.0508 6.6289l-6.6289 28.887c-0.47266 1.4219-1.8945 2.8398-3.3164 2.8398h-4.7344c-3.7891 0-7.1055 3.3164-7.1055 7.1055v26.992c0 3.7891 3.3164 7.1055 7.1055 7.1055h4.7344v12.785c0 3.7891 3.3164 7.1055 7.1055 7.1055h10.891c3.7891 0 7.1055-3.3164 7.1055-7.1055v-12.785h64.406v12.785c0 3.7891 3.3164 7.1055 7.1055 7.1055h10.891c3.7891 0 7.1055-3.3164 7.1055-7.1055v-12.785h4.7344c3.7891 0 7.1055-3.3164 7.1055-7.1055v-26.992c-0.003907-3.7852-3.3203-7.1016-7.1094-7.1016zm-62.039-55.41h4.7344c1.8945 0 3.3164 1.4219 3.3164 3.3164v13.734h-8.0508zm-44.988 85.246c-5.2109 0-9.4727-4.2617-9.4727-9.4727 0-5.2109 4.2617-9.4727 9.4727-9.4727 5.2109 0 9.4727 4.2617 9.4727 9.4727 0 5.2109-4.2656 9.4727-9.4727 9.4727zm0-27.469 6.6289-30.781h75.773l6.6289 30.781zm89.508 27.469c-5.2109 0-9.4727-4.2617-9.4727-9.4727 0-5.2109 4.2617-9.4727 9.4727-9.4727 5.2109 0 9.4727 4.2617 9.4727 9.4727-0.003907 5.2109-4.2656 9.4727-9.4727 9.4727z"/>
 </g>
</svg>